<?xml version="1.0" standalone="no"?><!DOCTYPE svg PUBLIC "-//W3C//DTD SVG 1.1//EN" "http://www.w3.org/Graphics/SVG/1.1/DTD/svg11.dtd"><svg t="1590820899797" class="icon" viewBox="0 0 1024 1024" version="1.1" xmlns="http://www.w3.org/2000/svg" p-id="11667" width="64" height="64" xmlns:xlink="http://www.w3.org/1999/xlink"><defs><style type="text/css"></style></defs><path d="M81.883429 498.688v353.353143a90.112 90.112 0 0 0 90.075428 90.075428h680.082286a90.075429 90.075429 0 0 0 90.075428-90.075428V171.958857a90.075429 90.075429 0 0 0-90.075428-90.075428h-324.900572a37.412571 37.412571 0 0 1 0-74.825143h324.900572a164.900571 164.900571 0 0 1 164.900571 164.937143v680.045714a164.900571 164.900571 0 0 1-164.937143 164.900571H171.995429a164.900571 164.900571 0 0 1-164.900572-164.937143v-353.316571a37.412571 37.412571 0 1 1 74.825143 0z" fill="#6EB13F" p-id="11668"></path><path d="M42.422857 128.585143l17.334857 0.914286a484.461714 484.461714 0 0 1 452.864 409.819428 37.412571 37.412571 0 0 0 73.874286-11.410286A559.250286 559.250286 0 0 0 63.853714 54.784l-17.334857-0.914286a37.449143 37.449143 0 1 0-4.022857 74.752v-0.036571z" fill="#6EB13F" p-id="11669"></path><path d="M547.401143 527.469714l-159.890286-87.405714a37.412571 37.412571 0 0 0-35.84 65.682286l171.264 93.622857c27.940571 15.286857 62.902857 6.4 80.201143-20.333714l107.044571-165.485715a37.412571 37.412571 0 1 0-62.829714-40.704l-99.949714 154.624z" fill="#6EB13F" p-id="11670"></path></svg>