<?xml version="1.0" standalone="no"?><!DOCTYPE svg PUBLIC "-//W3C//DTD SVG 1.1//EN" "http://www.w3.org/Graphics/SVG/1.1/DTD/svg11.dtd"><svg t="1590803948223" class="icon" viewBox="0 0 2323 1024" version="1.1" xmlns="http://www.w3.org/2000/svg" p-id="2617" width="72.59375" height="32" xmlns:xlink="http://www.w3.org/1999/xlink"><defs><style type="text/css"></style></defs><path d="M0 0h2323.692308L1929.846154 512l393.846154 512H0z" fill="#00C18F" p-id="2618"></path><path d="M670.326154 517.198769H373.523692v139.421539c0 20.795077 10.870154 31.665231 32.610462 31.66523h237.252923c11.342769 0 20.795077-2.835692 27.884308-8.507076 9.452308-8.507077 15.596308-38.754462 18.432-90.742154l33.083077 10.397538c-4.726154 58.604308-12.760615 93.577846-24.103385 105.865846-10.397538 9.924923-25.993846 15.123692-45.843692 16.068923h-256.157539c-38.281846 0-57.186462-19.849846-57.186461-58.604307v-248.123077h34.028307v69.947077h262.301539V361.235692H320.590769v-33.083077h349.735385v189.046154z m274.589538-214.094769h34.973539v146.038154h175.340307v33.083077H979.889231v202.279384h215.512615v33.083077h-420.627692v-33.083077h170.141538V303.104z m354.934154 169.668923a611.958154 611.958154 0 0 1-51.042461 60.022154l-10.870154-36.391385a529.998769 529.998769 0 0 0 110.119384-193.772307l32.137847 15.123692c-12.288 36.391385-27.411692 70.892308-46.316308 103.502769v316.179692h-34.028308v-264.664615zM1386.338462 363.598769h92.16l14.178461-60.967384 33.083077 3.308307c-4.726154 19.849846-8.979692 39.227077-13.233231 57.659077h142.729846v33.083077h-151.236923c-5.198769 18.904615-10.397538 37.336615-16.068923 54.823385h186.683077v32.610461h-197.553231a1157.238154 1157.238154 0 0 1-23.158153 60.022154h194.244923v29.302154c-19.849846 33.083077-51.515077 66.166154-94.995693 99.249231 22.212923 11.815385 43.480615 24.576 64.275693 38.281846l-19.377231 29.302154a823.768615 823.768615 0 0 0-177.703385-93.577846l17.959385-26.466462c29.302154 11.342769 57.659077 23.630769 85.070769 36.864 37.336615-25.993846 66.638769-52.932923 88.379077-81.289846h-202.279385c12.288-29.302154 24.103385-60.022154 34.973539-91.687385h-78.926769v-32.610461h89.324307c5.671385-18.432 10.870154-36.864 15.596308-54.823385H1386.338462v-33.083077z" fill="#FFFFFF" p-id="2619"></path></svg>